<svg id="Layer_1" enable-background="new 0 0 480 480" height="512" viewBox="0 0 480 480" width="512" xmlns="http://www.w3.org/2000/svg"><path d="m307.402 342.81c-27.21 13.02-27.48 43.13-27.48 43.13v62.06c0 13.25-10.75 24-24 24h-50c-13.25 0-24-10.75-24-24v-62.06c0-18.35-10.4-35.21-26.95-43.13-59.18-28.35-100.05-88.81-100.05-158.81 0-97.29 78.94-176.14 176.26-176 57-.08 107.69 26.92 139.92 68.86 67.603 88.041 37.819 217.317-63.7 265.95z" fill="#ffe773"/><path d="m206.652 472c-14.92 0-24.73-11.431-24.73-24v-62.06c0-10.059-3.127-19.675-8.681-27.612-1.398-1.998.675-4.74 3.231-3.518 16.89 8.088 26.95 25.186 26.95 43.13v62.06c0 4.37 1.17 8.47 3.23 12z" fill="#ffe773"/><path d="m299.569 21.695c19.092 7.985 13.173 36.377-7.522 36.306-111.736-.382-194.301 100.428-174.132 208.49 3.76 20.145-23.094 30.964-34.324 13.822-18.127-27.673-28.669-60.762-28.669-96.313 0-125.665 128.198-211.009 244.647-162.305z" fill="#ffec8f"/><path d="m279.922 389.5v58.5c0 13.25-10.75 24-24 24h-50c-13.25 0-24-10.75-24-24v-58.5z" fill="#d6f4fc"/><path d="m190.636 466.493c-5.517-4.52-8.714-11.324-8.714-18.493v-58.5h20.75c1.015 5.602.75 2.686.75 70.5 0 7.066-7.726 10.639-12.786 6.493z" fill="#e8f8fc"/><path d="m414.922 184c0 72.448-42.052 136.094-104.67 166.057-1.114.533-2.29.786-3.448.786-8.462 0-11.132-11.546-3.458-15.218 58.06-27.783 95.576-87.299 95.576-151.624 0-4.418 3.582-8 8-8s8 3.581 8 7.999zm-135 193.942c-4.418 0-8 3.582-8 8v62.058c0 8.822-7.178 16-16 16h-50c-8.822 0-16-7.178-16-16v-50.5h51c4.418 0 8-3.582 8-8s-3.582-8-8-8h-51.183c-1.574-19.677-13.507-37.38-31.307-45.907-58.02-27.795-95.51-87.298-95.51-151.593 0-92.767 75.047-168 167.999-168 30.687 0 60.677 8.258 86.71 23.899 3.79 2.276 8.703 1.05 10.978-2.737 2.275-3.788 1.05-8.702-2.737-10.978-27.755-16.674-60.468-26.184-94.951-26.184-101.594 0-183.999 82.191-183.999 184 0 72.42 42.019 136.044 104.597 166.022 13.609 6.52 22.403 20.618 22.403 35.917v62.061c0 17.645 14.355 32 32 32h50c17.645 0 32-14.355 32-32v-62.058c0-4.419-3.581-8-8-8zm94.951-225.958c5.862 5.862 5.863 15.35-.001 21.213-5.86 5.861-15.35 5.863-21.212 0-5.848-5.848-5.848-15.364 0-21.212 5.86-5.863 15.35-5.865 21.213-.001zm26.163-14.85c3.125-3.124 3.125-8.189 0-11.313-20.321-20.322-53.215-20.325-73.539 0-5.056 5.055-1.405 13.657 5.657 13.657 2.047 0 4.095-.781 5.657-2.343 14.069-14.069 36.84-14.07 50.912 0 3.123 3.123 8.189 3.123 11.313-.001zm29.699-41.011c-36.737-36.737-96.196-36.741-132.936 0-3.125 3.124-3.125 8.189 0 11.313 3.125 3.125 8.189 3.124 11.313 0 30.483-30.483 79.822-30.487 110.309 0 3.124 3.124 8.189 3.124 11.313 0 3.125-3.124 3.125-8.189.001-11.313zm-130.813 121.877c0 16.542-13.458 30-30 30h-14v92c0 4.418-3.582 8-8 8s-8-3.582-8-8v-92h-18v102c0 4.418-3.582 8-8 8s-8-3.582-8-8v-102h-14c-16.542 0-30-13.458-30-30s13.458-30 30-30 30 13.458 30 30v14h18v-14c0-16.542 13.458-30 30-30s30 13.458 30 30zm-108 14h14v-14c0-7.72-6.28-14-14-14s-14 6.28-14 14 6.28 14 14 14zm92-14c0-7.72-6.28-14-14-14s-14 6.28-14 14v14h14c7.72 0 14-6.28 14-14z"/></svg>